{"title":"Iron Man 2 2010 CAM XviD-DUBBY","uid":5531999,"size":738838366,"categoryP":"video","categoryS":"movies","magnet":"?xt=urn:btih:5a50b58c0625ae089b86e0c449dfa8aa0f9b27a9&amp;dn=Iron+Man+2+2010+CAM+XviD-DUBBY&amp;tr=udp%3A%2F%2Ftracker.openbittorrent.com%3A80&amp;tr=udp%3A%2F%2Fopen.demonii.com%3A1337&amp;tr=udp%3A%2F%2Ftracker.coppersurfer.tk%3A6969&amp;tr=udp%3A%2F%2Fexodus.desync.com%3A6969","seeders":1,"leechers":0,"uploader":"Emery2010","files":2,"time":1272959146,"description":"\n\nIron Man 2 2010 CAM XviD-DUBBY\n\nIMDB: http://www.imdb.com/title/tt1228705/\nGenre: Action | Adventure | Sci-Fi | Thriller \nRatings: 7.8/10   9,187 votes\n\nPlot: Billionaire Tony Stark must contend with deadly issues\ninvolving the government, his own friends, as well as new \nenemies due to his superhero alter ego Iron Man.\n\nVideo Source: Zheleznyj.chelovek.2.2010.D.CAMRip.ELEKTRI4KA\nAudio Source: Iron.Man.2.2010.NEW.AUDIO.CAM.XVID-PrisM\nNew Folder:   Iron Man 2 2010 CAM XviD-DUBBY\n\nOk, here is my cam of Iron Man 2, anyway, added a brightness \nfilter, and sharpened the pic a bit. Resized original video\nto 608 x 240 which is still a 2.5 aspect ratio. not a bad\ncam, defently not the worst. Audio is a lot better then the\nprevious source that was floating around...take it or leave it...\n\n\nVideo\nID                               : 0\nFormat                           : MPEG-4 Visual\nFormat profile                   : Advanced Simple@L5\nFormat settings, BVOP            : Yes\nFormat settings, QPel            : No\nFormat settings, GMC             : No warppoints\nFormat settings, Matrix          : Default (H.263)\nMuxing mode                      : Packed bitstream\nCodec ID                         : XVID\nCodec ID/Hint                    : XviD\nDuration                         : 1h 52mn\nBit rate                         : 741 Kbps\nWidth                            : 608 pixels\nHeight                           : 240 pixels\nDisplay aspect ratio             : 2.533\nFrame rate                       : 25.000 fps\nResolution                       : 8 bits\nColorimetry                      : 4:2:0\nScan type                        : Progressive\nBits/(Pixel*Frame)               : 0.203\nStream size                      : 594 MiB (84%)\nWriting library                  : XviD 1.2.1 (UTC 2008-12-04)\n\nAudio\nID                               : 1\nFormat                           : MPEG Audio\nFormat version                   : Version 1\nFormat profile                   : Layer 3\nMode                             : Joint stereo\nCodec ID                         : 55\nCodec ID/Hint                    : MP3\nDuration                         : 1h 52mn\nBit rate mode                    : Constant\nBit rate                         : 128 Kbps\nChannel(s)                       : 2 channels\nSampling rate                    : 48.0 KHz\nStream size                      : 103 MiB (15%)\nAlignment                        : Split accross interleaves\nInterleave, duration             : 40 ms (1.00 video frame)\nInterleave, preload duration     : 500 ms","torrent":{"xt":"urn:btih:5a50b58c0625ae089b86e0c449dfa8aa0f9b27a9","amp;dn":"Iron+Man+2+2010+CAM+XviD-DUBBY","amp;tr":["udp%3A%2F%2Ftracker.openbittorrent.com%3A80","udp%3A%2F%2Fopen.demonii.com%3A1337","udp%3A%2F%2Ftracker.coppersurfer.tk%3A6969","udp%3A%2F%2Fexodus.desync.com%3A6969"],"infoHash":"5a50b58c0625ae089b86e0c449dfa8aa0f9b27a9","infoHashBuffer":{"type":"Buffer","data":[90,80,181,140,6,37,174,8,155,134,224,196,73,223,168,170,15,155,39,169]},"announce":[],"urlList":[]}}